<mxfile host="app.diagrams.net" agent="Mozilla/5.0 (Windows NT 10.0; Win64; x64) AppleWebKit/537.36 (KHTML, like Gecko) Chrome/128.0.0.0 Safari/537.36 Edg/128.0.0.0" version="24.7.7">
  <diagram name="Page-1" id="0783ab3e-0a74-02c8-0abd-f7b4e66b4bec">
    <mxGraphModel dx="1320" dy="713" grid="0" gridSize="10" guides="1" tooltips="1" connect="1" arrows="1" fold="1" page="1" pageScale="1" pageWidth="850" pageHeight="1100" background="none" math="0" shadow="0">
      <root>
        <mxCell id="0" />
        <mxCell id="1" parent="0" />
        <mxCell id="1c1d494c118603dd-1" value="ออกตั๋ว" style="swimlane;html=1;childLayout=stackLayout;startSize=40;rounded=0;shadow=0;comic=0;labelBackgroundColor=none;strokeWidth=1;fontFamily=Verdana;fontSize=12;align=center;" parent="1" vertex="1">
          <mxGeometry x="40" y="30" width="750" height="940" as="geometry" />
        </mxCell>
        <mxCell id="1c1d494c118603dd-2" value="ลูกค้า" style="swimlane;html=1;startSize=40;" parent="1c1d494c118603dd-1" vertex="1">
          <mxGeometry y="40" width="360" height="900" as="geometry" />
        </mxCell>
        <mxCell id="lvkhObryTiA6OeJTpRyc-15" value="" style="rounded=1;whiteSpace=wrap;html=1;" vertex="1" parent="1c1d494c118603dd-2">
          <mxGeometry x="90" y="390" width="180" height="60" as="geometry" />
        </mxCell>
        <mxCell id="lvkhObryTiA6OeJTpRyc-16" value="พนักงานกดพิมพ์ตั๋วหลังจองให้ลูกค้า" style="text;html=1;align=center;verticalAlign=middle;whiteSpace=wrap;rounded=0;" vertex="1" parent="1c1d494c118603dd-2">
          <mxGeometry x="122.5" y="405" width="115" height="30" as="geometry" />
        </mxCell>
        <mxCell id="lvkhObryTiA6OeJTpRyc-18" value="" style="endArrow=classic;html=1;rounded=0;exitX=0.5;exitY=1;exitDx=0;exitDy=0;" edge="1" parent="1c1d494c118603dd-2" source="lvkhObryTiA6OeJTpRyc-15">
          <mxGeometry width="50" height="50" relative="1" as="geometry">
            <mxPoint x="170" y="470" as="sourcePoint" />
            <mxPoint x="560" y="490" as="targetPoint" />
            <Array as="points">
              <mxPoint x="180" y="470" />
              <mxPoint x="560" y="470" />
            </Array>
          </mxGeometry>
        </mxCell>
        <mxCell id="lvkhObryTiA6OeJTpRyc-22" value="" style="rounded=1;whiteSpace=wrap;html=1;" vertex="1" parent="1c1d494c118603dd-2">
          <mxGeometry x="100" y="610" width="180" height="60" as="geometry" />
        </mxCell>
        <mxCell id="lvkhObryTiA6OeJTpRyc-23" value="ทำการพิมพ์ตั๋วออกมา" style="text;html=1;align=center;verticalAlign=middle;whiteSpace=wrap;rounded=0;" vertex="1" parent="1c1d494c118603dd-2">
          <mxGeometry x="132.5" y="625" width="115" height="30" as="geometry" />
        </mxCell>
        <mxCell id="lvkhObryTiA6OeJTpRyc-3" value="ระบบ" style="swimlane;html=1;startSize=40;" vertex="1" parent="1c1d494c118603dd-1">
          <mxGeometry x="360" y="40" width="390" height="900" as="geometry" />
        </mxCell>
        <mxCell id="lvkhObryTiA6OeJTpRyc-5" value="" style="ellipse;whiteSpace=wrap;html=1;aspect=fixed;" vertex="1" parent="lvkhObryTiA6OeJTpRyc-3">
          <mxGeometry x="180" y="70" width="40" height="40" as="geometry" />
        </mxCell>
        <mxCell id="lvkhObryTiA6OeJTpRyc-7" value="" style="rounded=1;whiteSpace=wrap;html=1;" vertex="1" parent="lvkhObryTiA6OeJTpRyc-3">
          <mxGeometry x="110" y="150" width="180" height="70" as="geometry" />
        </mxCell>
        <mxCell id="lvkhObryTiA6OeJTpRyc-8" value="ดึงข้อมูลรายการจองที่ลูกค้าจองไว้" style="text;html=1;align=center;verticalAlign=middle;whiteSpace=wrap;rounded=0;" vertex="1" parent="lvkhObryTiA6OeJTpRyc-3">
          <mxGeometry x="142.5" y="175" width="115" height="30" as="geometry" />
        </mxCell>
        <mxCell id="lvkhObryTiA6OeJTpRyc-9" value="" style="rounded=1;whiteSpace=wrap;html=1;" vertex="1" parent="lvkhObryTiA6OeJTpRyc-3">
          <mxGeometry x="110" y="260" width="180" height="70" as="geometry" />
        </mxCell>
        <mxCell id="lvkhObryTiA6OeJTpRyc-10" value="" style="endArrow=classic;html=1;rounded=0;exitX=0.5;exitY=1;exitDx=0;exitDy=0;entryX=0.5;entryY=0;entryDx=0;entryDy=0;" edge="1" parent="lvkhObryTiA6OeJTpRyc-3" source="lvkhObryTiA6OeJTpRyc-7" target="lvkhObryTiA6OeJTpRyc-9">
          <mxGeometry width="50" height="50" relative="1" as="geometry">
            <mxPoint x="210" y="380" as="sourcePoint" />
            <mxPoint x="100" y="310" as="targetPoint" />
          </mxGeometry>
        </mxCell>
        <mxCell id="lvkhObryTiA6OeJTpRyc-6" value="" style="endArrow=classic;html=1;rounded=0;exitX=0.5;exitY=1;exitDx=0;exitDy=0;entryX=0.5;entryY=0;entryDx=0;entryDy=0;entryPerimeter=0;" edge="1" parent="lvkhObryTiA6OeJTpRyc-3" source="lvkhObryTiA6OeJTpRyc-5" target="lvkhObryTiA6OeJTpRyc-7">
          <mxGeometry width="50" height="50" relative="1" as="geometry">
            <mxPoint x="190" y="240" as="sourcePoint" />
            <mxPoint x="195" y="200" as="targetPoint" />
          </mxGeometry>
        </mxCell>
        <mxCell id="lvkhObryTiA6OeJTpRyc-12" value="สร้างqr codeให้ตั๋วตามประเภทของตั๋ว" style="text;html=1;align=center;verticalAlign=middle;whiteSpace=wrap;rounded=0;" vertex="1" parent="lvkhObryTiA6OeJTpRyc-3">
          <mxGeometry x="142.5" y="280" width="115" height="30" as="geometry" />
        </mxCell>
        <mxCell id="lvkhObryTiA6OeJTpRyc-19" value="" style="rounded=1;whiteSpace=wrap;html=1;" vertex="1" parent="lvkhObryTiA6OeJTpRyc-3">
          <mxGeometry x="110" y="490" width="180" height="60" as="geometry" />
        </mxCell>
        <mxCell id="lvkhObryTiA6OeJTpRyc-20" value="แสดงข้อมูลตั๋ว รอบเครื่องเล่น qr code&lt;div&gt;&lt;br&gt;&lt;/div&gt;" style="text;html=1;align=center;verticalAlign=middle;whiteSpace=wrap;rounded=0;" vertex="1" parent="lvkhObryTiA6OeJTpRyc-3">
          <mxGeometry x="142.5" y="510" width="115" height="30" as="geometry" />
        </mxCell>
        <mxCell id="lvkhObryTiA6OeJTpRyc-21" value="" style="endArrow=classic;html=1;rounded=0;exitX=0.5;exitY=1;exitDx=0;exitDy=0;entryX=0.5;entryY=0;entryDx=0;entryDy=0;" edge="1" parent="lvkhObryTiA6OeJTpRyc-3">
          <mxGeometry width="50" height="50" relative="1" as="geometry">
            <mxPoint x="200" y="550" as="sourcePoint" />
            <mxPoint x="-180" y="610" as="targetPoint" />
            <Array as="points">
              <mxPoint x="200" y="570" />
              <mxPoint y="570" />
              <mxPoint x="-180" y="570" />
            </Array>
          </mxGeometry>
        </mxCell>
        <mxCell id="lvkhObryTiA6OeJTpRyc-24" value="" style="endArrow=classic;html=1;rounded=0;exitX=0.5;exitY=1;exitDx=0;exitDy=0;" edge="1" parent="lvkhObryTiA6OeJTpRyc-3">
          <mxGeometry width="50" height="50" relative="1" as="geometry">
            <mxPoint x="-180" y="670" as="sourcePoint" />
            <mxPoint x="200" y="710" as="targetPoint" />
            <Array as="points">
              <mxPoint x="-180" y="690" />
              <mxPoint x="200" y="690" />
            </Array>
          </mxGeometry>
        </mxCell>
        <mxCell id="lvkhObryTiA6OeJTpRyc-37" value="" style="rounded=1;whiteSpace=wrap;html=1;" vertex="1" parent="lvkhObryTiA6OeJTpRyc-3">
          <mxGeometry x="110" y="710" width="180" height="60" as="geometry" />
        </mxCell>
        <mxCell id="lvkhObryTiA6OeJTpRyc-38" value="บันทึกข้อมูลการออกตั๋ว" style="text;html=1;align=center;verticalAlign=middle;whiteSpace=wrap;rounded=0;" vertex="1" parent="lvkhObryTiA6OeJTpRyc-3">
          <mxGeometry x="142.5" y="725" width="115" height="30" as="geometry" />
        </mxCell>
        <mxCell id="lvkhObryTiA6OeJTpRyc-39" value="" style="endArrow=classic;html=1;rounded=0;" edge="1" parent="lvkhObryTiA6OeJTpRyc-3">
          <mxGeometry width="50" height="50" relative="1" as="geometry">
            <mxPoint x="200" y="775" as="sourcePoint" />
            <mxPoint x="200" y="810" as="targetPoint" />
          </mxGeometry>
        </mxCell>
        <mxCell id="lvkhObryTiA6OeJTpRyc-42" value="" style="ellipse;shape=doubleEllipse;whiteSpace=wrap;html=1;aspect=fixed;" vertex="1" parent="lvkhObryTiA6OeJTpRyc-3">
          <mxGeometry x="180" y="810" width="45" height="45" as="geometry" />
        </mxCell>
        <mxCell id="lvkhObryTiA6OeJTpRyc-14" value="" style="endArrow=classic;html=1;rounded=0;exitX=0.5;exitY=1;exitDx=0;exitDy=0;entryX=0.5;entryY=0;entryDx=0;entryDy=0;" edge="1" parent="1c1d494c118603dd-1" source="lvkhObryTiA6OeJTpRyc-9" target="lvkhObryTiA6OeJTpRyc-15">
          <mxGeometry width="50" height="50" relative="1" as="geometry">
            <mxPoint x="410" y="510" as="sourcePoint" />
            <mxPoint x="180" y="410" as="targetPoint" />
            <Array as="points">
              <mxPoint x="560" y="410" />
              <mxPoint x="180" y="410" />
            </Array>
          </mxGeometry>
        </mxCell>
      </root>
    </mxGraphModel>
  </diagram>
</mxfile>
